<svg xmlns="http://www.w3.org/2000/svg" viewBox="0 0 32 32">
  <circle cx="16" cy="16" r="15" fill="#1e3a8a" stroke="#996515" stroke-width="1"/>
  <g transform="translate(3, 6)" fill="none" stroke="#996515" stroke-width="1.4" stroke-linecap="round" stroke-linejoin="round">
    <!-- Script R clean -->
    <path d="M4,19 L4,6 Q4,1 6.5,1 L9,1 Q12,1 12,3.5 Q12,6 9,6.5 L6,7 Q7,7 8,9 L12.5,19"/>
    <!-- Script S with flowing curves -->
    <path d="M22,3 Q22,1 19.5,1 Q16.5,1 15,3.5 Q14,5 15.5,7 Q17,8.5 19,9.5 Q21.5,11 22,13 Q22.5,15.5 20,17.5 Q18,19 15.5,19 Q13,19 12.5,17"/>
    <!-- Decorative underline flourish -->
    <path d="M3,20.5 Q8,22 14,20 Q20,18 24,20" stroke-width="1" opacity="0.7"/>
  </g>
</svg>
